<?xml version="1.0" encoding="UTF-8" standalone="no"?>
<svg width="65px" height="66px" viewBox="0 0 65 66" version="1.1" xmlns="http://www.w3.org/2000/svg" xmlns:xlink="http://www.w3.org/1999/xlink">
    <!-- Generator: Sketch 3.8.3 (29802) - http://www.bohemiancoding.com/sketch -->
    <title></title>
    <desc>Created with Sketch.</desc>
    <defs></defs>
    <g id="Page-1" stroke="none" stroke-width="1" fill="none" fill-rule="evenodd">
        <g id="2.1.1-Login-New-Password" transform="translate(-650.000000, -169.000000)" fill="#7AEC91">
            <g id="Group-5" transform="translate(485.000000, 169.000000)">
                <path d="M210.625,20.65625 L213.4375,23.46875 L192.5,44.5625 C192.083331,44.9791687 191.614586,45.1875 191.09375,45.1875 C190.572914,45.1875 190.104169,44.9791687 189.6875,44.5625 L180.9375,35.8125 L183.75,33 L191.09375,40.34375 L210.625,20.65625 Z M197.5,0.5 C206.458378,0.5 214.114552,3.67705156 220.46875,10.03125 C226.822948,16.3854484 230,24.0416219 230,33 C230,41.9583781 226.822948,49.6145516 220.46875,55.96875 C214.114552,62.3229484 206.458378,65.5 197.5,65.5 C188.541622,65.5 180.885448,62.3229484 174.53125,55.96875 C168.177052,49.6145516 165,41.9583781 165,33 C165,24.0416219 168.177052,16.3854484 174.53125,10.03125 C180.885448,3.67705156 188.541622,0.5 197.5,0.5 L197.5,0.5 Z M197.5,62.84375 C205.729208,62.84375 212.760388,59.9271125 218.59375,54.09375 C224.427113,48.2603875 227.34375,41.2292078 227.34375,33 C227.34375,24.7707922 224.427113,17.7396125 218.59375,11.90625 C212.760388,6.0728875 205.729208,3.15625 197.5,3.15625 C189.270792,3.15625 182.239612,6.0728875 176.40625,11.90625 C170.572888,17.7396125 167.65625,24.7707922 167.65625,33 C167.65625,41.2292078 170.572888,48.2603875 176.40625,54.09375 C182.239612,59.9271125 189.270792,62.84375 197.5,62.84375 L197.5,62.84375 Z" id=""></path>
            </g>
        </g>
    </g>
</svg>