<svg width="17" height="18" viewBox="0 0 17 18" xmlns="http://www.w3.org/2000/svg"><title></title><path d="M9.5625,13.28125 L9.03125,13.28125 L9.03125,8.53320312 L9.03125,8.51660156 L9.03125,8.5 C9.03125,8.35611907 8.97867891,8.2316086 8.87353516,8.12646484 C8.7683914,8.02132109 8.64388093,7.96875 8.5,7.96875 L7.4375,7.96875 C7.29361907,7.96875 7.1691086,8.02132109 7.06396484,8.12646484 C6.95882109,8.2316086 6.90625,8.35611907 6.90625,8.5 C6.90625,8.64388093 6.95882109,8.7683914 7.06396484,8.87353516 C7.1691086,8.97867891 7.29361907,9.03125 7.4375,9.03125 L7.96875,9.03125 L7.96875,13.28125 L7.4375,13.28125 C7.29361907,13.28125 7.1691086,13.3338211 7.06396484,13.4389648 C6.95882109,13.5441086 6.90625,13.6686191 6.90625,13.8125 C6.90625,13.9563809 6.95882109,14.0808914 7.06396484,14.1860352 C7.1691086,14.2911789 7.29361907,14.34375 7.4375,14.34375 L9.5625,14.34375 C9.70638093,14.34375 9.8308914,14.2911789 9.93603516,14.1860352 C10.0411789,14.0808914 10.09375,13.9563809 10.09375,13.8125 C10.09375,13.6686191 10.0411789,13.5441086 9.93603516,13.4389648 C9.8308914,13.3338211 9.70638093,13.28125 9.5625,13.28125 L9.5625,13.28125 Z M7.74462891,6.59912109 C7.94938253,6.80387472 8.20117038,6.90625 8.5,6.90625 C8.79882962,6.90625 9.05061747,6.80387472 9.25537109,6.59912109 C9.46012472,6.39436747 9.5625,6.14257962 9.5625,5.84375 C9.5625,5.54492038 9.46012472,5.29313253 9.25537109,5.08837891 C9.05061747,4.88362528 8.79882962,4.78125 8.5,4.78125 C8.20117038,4.78125 7.94938253,4.88362528 7.74462891,5.08837891 C7.53987528,5.29313253 7.4375,5.54492038 7.4375,5.84375 C7.4375,6.14257962 7.53987528,6.39436747 7.74462891,6.59912109 L7.74462891,6.59912109 Z M11.1811523,1.49414062 C10.3123329,1.20637877 9.41862438,1.0625 8.5,1.0625 C7.58137562,1.0625 6.6876671,1.20637877 5.81884766,1.49414062 C4.95002821,1.78190248 4.16699567,2.18586979 3.46972656,2.70605469 C2.77245745,3.22623958 2.16373958,3.83495745 1.64355469,4.53222656 C1.12336979,5.22949567 0.71940248,6.01252821 0.431640625,6.88134766 C0.14387877,7.7501671 0,8.64387562 0,9.5625 C0,10.7135474 0.224118853,11.8147734 0.672363281,12.8662109 C1.12060771,13.9176485 1.72379178,14.8224246 2.48193359,15.5805664 C3.24007541,16.3387082 4.14485151,16.9418923 5.19628906,17.3901367 C6.24772661,17.8383811 7.34895258,18.0625 8.5,18.0625 C9.65104742,18.0625 10.7522734,17.8383811 11.8037109,17.3901367 C12.8551485,16.9418923 13.7599246,16.3387082 14.5180664,15.5805664 C15.2762082,14.8224246 15.8793923,13.9176485 16.3276367,12.8662109 C16.7758811,11.8147734 17,10.7135474 17,9.5625 C17,8.64387562 16.8561212,7.7501671 16.5683594,6.88134766 C16.2805975,6.01252821 15.8766302,5.22949567 15.3564453,4.53222656 C14.8362604,3.83495745 14.2275425,3.22623958 13.5302734,2.70605469 C12.8330043,2.18586979 12.0499718,1.78190248 11.1811523,1.49414062 L11.1811523,1.49414062 Z M8.5,17.0166016 C7.69205325,17.0166016 6.90902072,16.8920911 6.15087891,16.6430664 C5.39273709,16.3940417 4.70931294,16.0371117 4.10058594,15.5722656 C3.49185894,15.1074196 2.95784735,14.5706411 2.49853516,13.9619141 C2.03922296,13.3531871 1.68505984,12.6697629 1.43603516,11.9116211 C1.18701047,11.1534793 1.0625,10.3704467 1.0625,9.5625 C1.0625,8.55533351 1.25894986,7.59245251 1.65185547,6.67382812 C2.04476108,5.75520374 2.57323887,4.96387051 3.23730469,4.29980469 C3.90137051,3.63573887 4.69270374,3.10726108 5.61132812,2.71435547 C6.52995251,2.32144986 7.49283351,2.125 8.5,2.125 C9.50716649,2.125 10.4700475,2.32144986 11.3886719,2.71435547 C12.3072963,3.10726108 13.0986295,3.63573887 13.7626953,4.29980469 C14.4267611,4.96387051 14.9552389,5.75520374 15.3481445,6.67382812 C15.7410501,7.59245251 15.9375,8.55533351 15.9375,9.5625 C15.9375,10.5696665 15.7410501,11.5325475 15.3481445,12.4511719 C14.9552389,13.3697963 14.4267611,14.1638964 13.7626953,14.8334961 C13.0986295,15.5030958 12.3072963,16.0343405 11.3886719,16.4272461 C10.4700475,16.8201517 9.50716649,17.0166016 8.5,17.0166016 L8.5,17.0166016 Z" transform="translate(0 -1)" fill="#715400" fill-rule="evenodd"/></svg>