<svg width="17" height="17" viewBox="0 0 17 17" xmlns="http://www.w3.org/2000/svg"><title>Type something</title><path d="M13.8671875,3.7578125 C15.4557371,5.34636211 16.25,7.26040547 16.25,9.5 C16.25,11.7395945 15.4557371,13.6536379 13.8671875,15.2421875 C12.2786379,16.8307371 10.3645945,17.625 8.125,17.625 C5.88540547,17.625 3.97136211,16.8307371 2.3828125,15.2421875 C0.794262891,13.6536379 0,11.7395945 0,9.5 C0,7.26040547 0.794262891,5.34636211 2.3828125,3.7578125 C3.97136211,2.16926289 5.88540547,1.375 8.125,1.375 C10.3645945,1.375 12.2786379,2.16926289 13.8671875,3.7578125 L13.8671875,3.7578125 Z M13.3984375,14.7734375 C14.8307363,13.3411387 15.546875,11.5833438 15.546875,9.5 C15.546875,7.41665625 14.8307363,5.65886133 13.3984375,4.2265625 C11.9661387,2.79426367 10.2083437,2.078125 8.125,2.078125 C6.04165625,2.078125 4.28386133,2.79426367 2.8515625,4.2265625 C1.41926367,5.65886133 0.703125,7.41665625 0.703125,9.5 C0.703125,11.5833438 1.41926367,13.3411387 2.8515625,14.7734375 C4.28386133,16.2057363 6.04165625,16.921875 8.125,16.921875 C10.2083437,16.921875 11.9661387,16.2057363 13.3984375,14.7734375 L13.3984375,14.7734375 Z M11.40625,5.75 L11.875,6.21875 L8.59375,9.5 L11.875,12.78125 L11.40625,13.25 L8.125,9.96875 L4.84375,13.25 L4.375,12.78125 L7.65625,9.5 L4.375,6.21875 L4.84375,5.75 L8.125,9.03125 L11.40625,5.75 Z" transform="translate(0 -1)" fill="#630101" fill-rule="evenodd"/></svg>