<?xml version="1.0" encoding="UTF-8" standalone="no"?>
<svg width="10px" height="15px" viewBox="0 0 10 15" version="1.1" xmlns="http://www.w3.org/2000/svg" xmlns:xlink="http://www.w3.org/1999/xlink">
    <!-- Generator: Sketch 3.8.3 (29802) - http://www.bohemiancoding.com/sketch -->
    <title>Group</title>
    <desc>Created with Sketch.</desc>
    <defs></defs>
    <g id="Symbols" stroke="none" stroke-width="1" fill="none" fill-rule="evenodd">
        <g id="CampaignName" transform="translate(-106.000000, -23.000000)" fill="#979797">
            <g id="Group-10" transform="translate(0.000000, 22.000000)">
                <g id="Group" transform="translate(106.000000, 1.000000)">
                    <path d="M2.08333333,12.979375 L2.08333333,11.5933333 L4.715625,9.12145833 C4.875625,8.97125 5.12458333,8.97083333 5.285,9.120625 L7.90729167,11.5672917 L7.91666667,12.979375 C7.916875,13.0022917 7.89833333,13.0208333 7.87541667,13.0208333 L2.12479167,13.0208333 C2.101875,13.0208333 2.08333333,13.0022917 2.08333333,12.979375 L2.08333333,12.979375 Z" id="Shape"></path>
                    <path d="M0.520833333,0 L9.47916667,0 C9.709375,0 9.89583333,0.186458333 9.89583333,0.416666667 L9.89583333,4.14291667 C9.89583333,4.23875 9.86291667,4.33166667 9.80229167,4.40583333 L7.25375,7.53875 L9.80083333,10.6335417 C9.86229167,10.708125 9.89583333,10.8016667 9.89583333,10.8983333 L9.89583333,14.5833333 C9.89583333,14.8135417 9.709375,15 9.47916667,15 L0.520833333,15 C0.290625,15 0.104166667,14.8135417 0.104166667,14.5833333 L0.104166667,10.8983333 C0.104166667,10.8016667 0.137708333,10.708125 0.199166667,10.6335417 L2.74625,7.53875 L0.197708333,4.40583333 C0.137291667,4.33145833 0.104166667,4.23875 0.104166667,4.14291667 L0.104166667,0.416666667 C0.104166667,0.186458333 0.290625,0 0.520833333,0 L0.520833333,0 Z M8.85416667,1.04166667 L1.14583333,1.04166667 L1.14583333,3.920625 L3.98479167,7.41 C4.04729167,7.486875 4.04708333,7.59729167 3.98395833,7.67395833 L1.14583333,11.1225 L1.14583333,13.9583333 L8.85416667,13.9583333 L8.85416667,11.1225 L6.01604167,7.67395833 C5.953125,7.59729167 5.95270833,7.48708333 6.01520833,7.41 L8.85416667,3.920625 L8.85416667,1.04166667 L8.85416667,1.04166667 Z" id="Shape"></path>
                    <path d="M3.67916667,5.60395833 L4.53583333,6.66354167 C4.62395833,6.7725 4.74291667,6.85895833 4.88020833,6.88708333 C5.09708333,6.93166667 5.31125,6.8525 5.44520833,6.68666667 L6.320625,5.60395833 C6.43083333,5.46770833 6.33375,5.26458333 6.15854167,5.26458333 L3.84125,5.26458333 C3.66604167,5.26479167 3.56916667,5.46770833 3.67916667,5.60395833 L3.67916667,5.60395833 Z" id="Shape"></path>
                </g>
            </g>
        </g>
    </g>
</svg>