<?xml version="1.0" encoding="UTF-8" standalone="no"?>
<svg width="21px" height="20px" viewBox="0 0 21 20" version="1.1" xmlns="http://www.w3.org/2000/svg" xmlns:xlink="http://www.w3.org/1999/xlink">
    <!-- Generator: Sketch 3.8.3 (29802) - http://www.bohemiancoding.com/sketch -->
    <title>Group 5</title>
    <desc>Created with Sketch.</desc>
    <defs></defs>
    <g id="Symbols" stroke="none" stroke-width="1" fill="none" fill-rule="evenodd">
        <g id="GraphActions" transform="translate(-1189.000000, -25.000000)" fill="#888888">
            <g id="Group-16" transform="translate(1189.000000, 15.000000)">
                <g id="Group-5" transform="translate(0.000000, 10.000000)">
                    <path d="M17.7272727,20 L3.18181818,20 C1.42727273,20 0,18.5727273 0,16.8181818 L0,15.9090909 C0,14.1545455 1.42727273,12.7272727 3.18181818,12.7272727 L17.7272727,12.7272727 C19.4818182,12.7272727 20.9090909,14.1545455 20.9090909,15.9090909 L20.9090909,16.8181818 C20.9090909,18.5727273 19.4818182,20 17.7272727,20 L17.7272727,20 Z M3.18181818,13.6363636 C1.92818182,13.6363636 0.909090909,14.6563636 0.909090909,15.9090909 L0.909090909,16.8181818 C0.909090909,18.0709091 1.92818182,19.0909091 3.18181818,19.0909091 L17.7272727,19.0909091 C18.9809091,19.0909091 20,18.0709091 20,16.8181818 L20,15.9090909 C20,14.6563636 18.9809091,13.6363636 17.7272727,13.6363636 L3.18181818,13.6363636 L3.18181818,13.6363636 Z" id="Shape"></path>
                    <path d="M17.0454545,17.7272727 C16.2936364,17.7272727 15.6818182,17.1154545 15.6818182,16.3636364 C15.6818182,15.6118182 16.2936364,15 17.0454545,15 C17.7972727,15 18.4090909,15.6118182 18.4090909,16.3636364 C18.4090909,17.1154545 17.7972727,17.7272727 17.0454545,17.7272727 L17.0454545,17.7272727 Z M17.0454545,15.9090909 C16.7954545,15.9090909 16.5909091,16.1136364 16.5909091,16.3636364 C16.5909091,16.6136364 16.7954545,16.8181818 17.0454545,16.8181818 C17.2954545,16.8181818 17.5,16.6136364 17.5,16.3636364 C17.5,16.1136364 17.2954545,15.9090909 17.0454545,15.9090909 L17.0454545,15.9090909 Z" id="Shape"></path>
                    <path d="M0.831818182,14.9872727 C0.811818182,14.9872727 0.790909091,14.9854545 0.770909091,14.9836364 C0.523636364,14.95 0.347272727,14.7209091 0.380909091,14.4718182 L1.92090909,3.03272727 C2.15454545,1.30363636 3.64454545,-8.8817842e-16 5.38818182,-8.8817842e-16 L15.5136364,-8.8817842e-16 C17.2627273,-8.8817842e-16 18.7527273,1.30727273 18.9818182,3.04 L20.4872727,14.4136364 C20.52,14.6618182 20.3454545,14.8909091 20.0936364,14.9236364 C19.8481818,14.9554545 19.6190909,14.7836364 19.5827273,14.5327273 L18.0781818,3.16 C17.9081818,1.87727273 16.8036364,0.909090909 15.51,0.909090909 L5.39090909,0.909090909 C4.09818182,0.909090909 2.99454545,1.87545455 2.82272727,3.15454545 L1.28272727,14.5945455 C1.25090909,14.8227273 1.05545455,14.9872727 0.831818182,14.9872727 L0.831818182,14.9872727 Z" id="Shape"></path>
                    <path d="M10.4545455,9.54545455 C10.2045455,9.54545455 10,9.34181818 10,9.09090909 L10,2.72727273 C10,2.47636364 10.2045455,2.27272727 10.4545455,2.27272727 C10.7045455,2.27272727 10.9090909,2.47636364 10.9090909,2.72727273 L10.9090909,9.09090909 C10.9090909,9.34181818 10.7045455,9.54545455 10.4545455,9.54545455 L10.4545455,9.54545455 Z" id="Shape"></path>
                    <path d="M10.4545455,10.4545455 C10.3654545,10.4545455 10.2790909,10.4290909 10.2027273,10.3781818 L6.11181818,7.65090909 C5.90363636,7.51181818 5.84727273,7.22909091 5.98545455,7.02090909 C6.12363636,6.81090909 6.40909091,6.75545455 6.61545455,6.89454545 L10.4545455,9.45363636 L14.2936364,6.89454545 C14.5018182,6.75545455 14.7836364,6.81090909 14.9236364,7.02090909 C15.0618182,7.22909091 15.0063636,7.51181818 14.7972727,7.65090909 L10.7063636,10.3781818 C10.63,10.4290909 10.5436364,10.4545455 10.4545455,10.4545455 L10.4545455,10.4545455 Z" id="Shape"></path>
                </g>
            </g>
        </g>
    </g>
</svg>