<svg width="17" height="17" viewBox="0 0 17 17" xmlns="http://www.w3.org/2000/svg"><title>Group 32</title><g transform="translate(1 1)" fill="none" fill-rule="evenodd"><circle stroke="#02C7F1" fill="#02C7F1" cx="7.5" cy="7.5" r="7.5"/><path d="M10.5742188,9.92773438 C10.6914068,10.0566413 10.75,10.2089835 10.75,10.3847656 C10.75,10.5605478 10.6914068,10.7070307 10.5742188,10.8242188 C10.4570307,10.9414068 10.3105478,11 10.1347656,11 C9.9589835,11 9.80664127,10.9414068 9.67773438,10.8242188 L7.375,8.52148438 L5.07226562,10.8242188 C4.94335873,10.9414068 4.79687582,11 4.6328125,11 C4.46874918,11 4.32226627,10.9414068 4.19335938,10.8242188 C4.06445248,10.7070307 4,10.5605478 4,10.3847656 C4,10.2089835 4.06445248,10.0566413 4.19335938,9.92773438 L6.47851562,7.625 L4.19335938,5.32226562 C4.06445248,5.19335873 4,5.0410165 4,4.86523438 C4,4.68945225 4.06445248,4.54296934 4.19335938,4.42578125 C4.32226627,4.30859316 4.46874918,4.25 4.6328125,4.25 C4.79687582,4.25 4.94335873,4.30859316 5.07226562,4.42578125 L7.375,6.72851562 L9.67773438,4.42578125 C9.80664127,4.30859316 9.9589835,4.25 10.1347656,4.25 C10.3105478,4.25 10.4570307,4.30859316 10.5742188,4.42578125 C10.6914068,4.54296934 10.75,4.68945225 10.75,4.86523438 C10.75,5.0410165 10.6914068,5.19335873 10.5742188,5.32226562 L8.27148438,7.625 L10.5742188,9.92773438 Z" fill="#FFF"/></g></svg>