<svg width="20" height="21" viewBox="0 0 20 21" xmlns="http://www.w3.org/2000/svg"><title>Shape</title><path d="M18.9004343,18.9873 L15.2553741,18.9873 L15.2553741,16.1306284 L18.9004343,16.1306284 L18.9004343,18.9873 L18.9004343,18.9873 Z M10.5338391,16.1306284 L14.1558085,16.1306284 L14.1558085,18.9873 L10.5338391,18.9873 L10.5338391,16.1306284 L10.5338391,16.1306284 Z M5.81230414,16.1306284 L9.43427346,16.1306284 L9.43427346,18.9873 L5.81230414,18.9873 L5.81230414,16.1306284 L5.81230414,16.1306284 Z M1.09956567,16.1306284 L4.71273847,16.1306284 L4.71273847,18.9873 L1.09956567,18.9873 L1.09956567,16.1306284 L1.09956567,16.1306284 Z M1.09956567,2.61916543 L3.24591786,2.61916543 C3.48012535,3.51641102 4.29160482,4.18494695 5.2625213,4.18494695 C6.23343779,4.18494695 7.04381769,3.51641102 7.27912475,2.61916543 L12.6889878,2.61916543 C12.9242949,3.51641102 13.7346748,4.18494695 14.7055913,4.18494695 C15.6765078,4.18494695 16.4879872,3.51641102 16.7232943,2.61916543 L18.9004343,2.61916543 L18.9004343,6.7040519 L1.09956567,6.7040519 L1.09956567,2.61916543 L1.09956567,2.61916543 Z M4.2696135,2.09247347 C4.2696135,1.87475947 4.35428006,1.68343504 4.47413272,1.51959976 C4.65446149,1.27109792 4.9326516,1.09956567 5.2625213,1.09956567 C5.59239101,1.09956567 5.87058112,1.27109792 6.05090989,1.51959976 C6.17076255,1.68343504 6.25542911,1.87475947 6.25542911,2.09247347 C6.25542911,2.29039529 6.18285777,2.46412667 6.0827973,2.61916543 C5.90576722,2.89295728 5.61218319,3.08538127 5.2625213,3.08538127 C4.91285942,3.08538127 4.61927539,2.89295728 4.44224531,2.61916543 C4.34218484,2.46412667 4.2696135,2.29039529 4.2696135,2.09247347 L4.2696135,2.09247347 L4.2696135,2.09247347 Z M13.7126835,2.09247347 C13.7126835,1.87475947 13.79735,1.68343504 13.9172027,1.51959976 C14.0975315,1.27109792 14.3757216,1.09956567 14.7055913,1.09956567 C15.035461,1.09956567 15.3136511,1.27109792 15.4939799,1.51959976 C15.6138325,1.68343504 15.6984991,1.87475947 15.6984991,2.09247347 C15.6984991,2.29039529 15.6259278,2.46412667 15.5258673,2.61916543 C15.3488372,2.89295728 15.0552532,3.08538127 14.7055913,3.08538127 C14.3559294,3.08538127 14.0623454,2.89295728 13.8853153,2.61916543 C13.7863544,2.46412667 13.7126835,2.29039529 13.7126835,2.09247347 L13.7126835,2.09247347 L13.7126835,2.09247347 Z M15.2553741,11.9665732 L18.9004343,11.9665732 L18.9004343,15.0299632 L15.2553741,15.0299632 L15.2553741,11.9665732 L15.2553741,11.9665732 Z M10.5338391,11.9665732 L14.1558085,11.9665732 L14.1558085,15.0299632 L10.5338391,15.0299632 L10.5338391,11.9665732 L10.5338391,11.9665732 Z M5.81230414,11.9665732 L9.43427346,11.9665732 L9.43427346,15.0299632 L5.81230414,15.0299632 L5.81230414,11.9665732 L5.81230414,11.9665732 Z M1.09956567,11.9665732 L4.71273847,11.9665732 L4.71273847,15.0299632 L1.09956567,15.0299632 L1.09956567,11.9665732 L1.09956567,11.9665732 Z M4.71273847,10.8670075 L1.09956567,10.8670075 L1.09956567,7.80361757 L4.71273847,7.80361757 L4.71273847,10.8670075 L4.71273847,10.8670075 Z M9.43427346,10.8670075 L5.81230414,10.8670075 L5.81230414,7.80361757 L9.43427346,7.80361757 L9.43427346,10.8670075 L9.43427346,10.8670075 Z M14.1558085,10.8670075 L10.5338391,10.8670075 L10.5338391,7.80361757 L14.1558085,7.80361757 L14.1558085,10.8670075 L14.1558085,10.8670075 Z M18.9004343,10.8670075 L15.2553741,10.8670075 L15.2553741,7.80361757 L18.9004343,7.80361757 L18.9004343,10.8670075 L18.9004343,10.8670075 Z M18.9004343,1.51959976 L16.7079004,1.51959976 C16.4571994,0.645445049 15.6600143,0 14.7055913,0 C13.7522679,0 12.9539832,0.645445049 12.7032822,1.51959976 L7.26483039,1.51959976 C7.01412942,0.645445049 6.21584474,0 5.2625213,0 C4.3080983,0 3.51091319,0.645445049 3.26021222,1.51959976 L1.09956567,1.51959976 C0.492605421,1.51959976 0,2.01110561 0,2.61916543 L0,18.9873 C0,19.5942603 0.492605421,20.0868657 1.09956567,20.0868657 L18.9004343,20.0868657 C19.5073946,20.0868657 20,19.5942603 20,18.9873 L20,2.61916543 C20,2.01110561 19.5073946,1.51959976 18.9004343,1.51959976 L18.9004343,1.51959976 L18.9004343,1.51959976 Z" fill="#ADADAD" fill-rule="evenodd"/></svg>