<?xml version="1.0" encoding="utf-8"?>
<!-- Generator: Adobe Illustrator 16.0.0, SVG Export Plug-In . SVG Version: 6.00 Build 0)  -->
<!DOCTYPE svg PUBLIC "-//W3C//DTD SVG 1.1//EN" "http://www.w3.org/Graphics/SVG/1.1/DTD/svg11.dtd">
<svg version="1.1" id="Layer_1" xmlns="http://www.w3.org/2000/svg" xmlns:xlink="http://www.w3.org/1999/xlink" x="0px" y="0px"
	 width="24px" height="16px" viewBox="0 0 24 16" enable-background="new 0 0 24 16" xml:space="preserve">
<path id="Fill-1" fill="#888888" d="M11.841,1.569c4.071,0,7.841,2.388,10.158,6.411c-2.317,4.022-6.087,6.411-10.158,6.411
	S4,12.002,1.683,7.979C4,3.957,7.77,1.569,11.841,1.569 M18.666,13.854c1.989-1.322,3.691-3.225,4.921-5.501
	c0.126-0.233,0.126-0.513,0-0.746c-1.229-2.276-2.932-4.178-4.921-5.501C16.594,0.728,14.234,0,11.841,0
	C9.448,0,7.087,0.728,5.016,2.105C3.026,3.428,1.324,5.331,0.094,7.606c-0.125,0.233-0.125,0.513,0,0.746
	c1.23,2.276,2.932,4.179,4.921,5.501c2.072,1.377,4.432,2.105,6.825,2.105C14.234,15.959,16.594,15.23,18.666,13.854 M16.113,7.979
	c0,2.359-1.913,4.272-4.272,4.272s-4.272-1.913-4.272-4.272s1.913-4.272,4.272-4.272S16.113,5.62,16.113,7.979"/>
</svg>
