<?xml version="1.0" encoding="utf-8"?>
<!-- Generator: Adobe Illustrator 16.0.0, SVG Export Plug-In . SVG Version: 6.00 Build 0)  -->
<!DOCTYPE svg PUBLIC "-//W3C//DTD SVG 1.1//EN" "http://www.w3.org/Graphics/SVG/1.1/DTD/svg11.dtd">
<svg version="1.1" id="Layer_1" xmlns="http://www.w3.org/2000/svg" xmlns:xlink="http://www.w3.org/1999/xlink" x="0px" y="0px"
	 width="24px" height="16px" viewBox="0 0 24 16" enable-background="new 0 0 24 16" xml:space="preserve">
<path fill="#888888" d="M23.471,7.07c-0.582-0.837-1.833-2.46-3.689-3.927C19.664,3.051,19.518,3,19.369,3
	c-0.178,0-0.346,0.069-0.471,0.194c-0.133,0.134-0.203,0.319-0.192,0.507c0.011,0.19,0.104,0.368,0.254,0.487
	c1.716,1.358,2.878,2.865,3.419,3.644c0.04,0.059,0.04,0.134,0,0.194c-1.018,1.466-4.766,6.248-10.286,6.248
	c-1.08,0-2.162-0.18-3.218-0.533c-0.067-0.023-0.137-0.034-0.208-0.034c-0.175,0-0.347,0.071-0.472,0.196
	c-0.166,0.165-0.232,0.399-0.178,0.627c0.054,0.229,0.217,0.406,0.438,0.48c1.184,0.395,2.407,0.595,3.637,0.595
	c6.165,0,10.266-5.22,11.377-6.818C23.826,8.273,23.826,7.583,23.471,7.07 M10,12.395l0.202,0.07
	c0.433,0.146,0.884,0.223,1.341,0.223c0.187,0,0.378-0.014,0.566-0.038c1.836-0.249,3.289-1.704,3.537-3.54
	c0.088-0.65,0.025-1.292-0.184-1.908L15.393,7L10,12.395 M18.058,0.176c-0.233-0.234-0.613-0.234-0.847,0l-1.014,1.014l-0.133-0.055
	c-1.398-0.576-2.842-0.868-4.29-0.868c-2.695,0-5.288,0.946-7.706,2.812C2.158,4.554,0.867,6.222,0.268,7.084
	c-0.357,0.514-0.357,1.204,0,1.717c0.6,0.863,1.891,2.531,3.802,4.006c0.057,0.045,0.114,0.086,0.171,0.129l0.125,0.092
	l-1.221,1.221c-0.234,0.234-0.234,0.614,0,0.848c0.117,0.117,0.271,0.176,0.423,0.176c0.154,0,0.307-0.059,0.424-0.176L18.058,1.023
	C18.291,0.789,18.291,0.409,18.058,0.176L18.058,0.176L18.058,0.176z M5.235,12.013c-2.03-1.474-3.386-3.268-3.875-3.971
	c-0.042-0.061-0.042-0.137,0-0.198c1.019-1.465,4.779-6.246,10.415-6.246c1.132,0,2.266,0.205,3.372,0.608l0.025,0.009l-1.855,1.857
	l-0.039-0.016c-0.496-0.201-1.019-0.303-1.555-0.303c-2.284,0-4.142,1.859-4.142,4.144c0,0.536,0.102,1.061,0.303,1.557l0.016,0.039
	l-2.581,2.582L5.235,12.013L5.235,12.013L5.235,12.013z"/>
</svg>
