<?xml version="1.0" encoding="UTF-8" standalone="no"?>
<svg width="65px" height="66px" viewBox="0 0 65 66" version="1.1" xmlns="http://www.w3.org/2000/svg" xmlns:xlink="http://www.w3.org/1999/xlink">
    <!-- Generator: Sketch 3.8.3 (29802) - http://www.bohemiancoding.com/sketch -->
    <title></title>
    <desc>Created with Sketch.</desc>
    <defs></defs>
    <g id="Page-1" stroke="none" stroke-width="1" fill="none" fill-rule="evenodd">
        <g id="2.1.1-Login-New-Password" transform="translate(-650.000000, -169.000000)" fill="#7AEC91">
            <g id="Group-5" transform="translate(485.000000, 162.000000)">
                <path d="M210.625,27.65625 L213.4375,30.46875 L192.5,51.5625 C192.083331,51.9791687 191.614586,52.1875 191.09375,52.1875 C190.572914,52.1875 190.104169,51.9791687 189.6875,51.5625 L180.9375,42.8125 L183.75,40 L191.09375,47.34375 L210.625,27.65625 Z M197.5,7.5 C206.458378,7.5 214.114552,10.6770516 220.46875,17.03125 C226.822948,23.3854484 230,31.0416219 230,40 C230,48.9583781 226.822948,56.6145516 220.46875,62.96875 C214.114552,69.3229484 206.458378,72.5 197.5,72.5 C188.541622,72.5 180.885448,69.3229484 174.53125,62.96875 C168.177052,56.6145516 165,48.9583781 165,40 C165,31.0416219 168.177052,23.3854484 174.53125,17.03125 C180.885448,10.6770516 188.541622,7.5 197.5,7.5 L197.5,7.5 Z M197.5,69.84375 C205.729208,69.84375 212.760388,66.9271125 218.59375,61.09375 C224.427113,55.2603875 227.34375,48.2292078 227.34375,40 C227.34375,31.7707922 224.427113,24.7396125 218.59375,18.90625 C212.760388,13.0728875 205.729208,10.15625 197.5,10.15625 C189.270792,10.15625 182.239612,13.0728875 176.40625,18.90625 C170.572888,24.7396125 167.65625,31.7707922 167.65625,40 C167.65625,48.2292078 170.572888,55.2603875 176.40625,61.09375 C182.239612,66.9271125 189.270792,69.84375 197.5,69.84375 L197.5,69.84375 Z" id=""></path>
            </g>
        </g>
    </g>
</svg>