<svg width="100" height="35" viewBox="0 0 100 35" xmlns="http://www.w3.org/2000/svg"><title>unidesq-logo</title><g fill="#191F2D" fill-rule="evenodd"><path d="M81.7052445 19.4835824L84.3181478 17.9689917 85.5027471 18.7142467 79.3681998 22.2701928z"/><path d="M90.3725286 21.0259075L90.3627471 24.4693387 81.7052029 19.4836032 79.3681582 22.2702135 79.3957336 14.7044217z"/><path d="M90.3725494 21.0259075L90.362768 24.4694425 99.8968991 18.9427224 99.9067846 15.4991874z"/><path d="M90.3584495 16.4710498L90.3486681 19.9137544 79.3724974 13.5926839 79.3822789 10.1499792z"/><path d="M90.3584495 16.4710498L99.8925806 10.9443298 99.8827992 14.3870344 90.3486681 19.9137544z"/><path d="M90.3584495 11.9515658L90.3486681 15.3942705 79.3724974 9.07319988 79.3822789 5.63049526z"/><path d="M90.3584495 11.9515658L99.8925806 6.42484579 99.8827992 9.86755042 90.3486681 15.3942705z"/><path d="M88.9164412 0.10372331L79.382206 5.63044336 90.3583767 11.9515139 99.8926119 6.42479389z"/><path d="M10.9503746,17.0547672 C10.9503746,17.5633674 10.5619251,17.9992067 10.027794,17.9992067 C9.51780437,17.9992067 9.10510926,17.5875519 9.10510926,17.0547672 L9.10510926,15.6983615 C8.25516129,17.0547672 6.96827263,18.1445211 4.8075026,18.1445211 C1.77233091,18.1445211 1.04058273e-05,16.1100163 1.04058273e-05,13.1310721 L1.04058273e-05,5.91486507 C1.04058273e-05,5.38208037 0.388459938,5.23562426 0.922591051,5.23562426 C1.43258065,5.23562426 1.86952133,5.58095344 1.86952133,6.11373814 L1.86952133,12.6710483 C1.86952133,14.996078 3.13216441,16.4492215 5.34163371,16.4492215 C7.47815817,16.4492215 9.10510926,14.8749481 9.10510926,12.525734 L9.10510926,6.18006376 C9.10510926,5.64727906 9.49366285,5.23562426 10.027794,5.23562426 C10.5376795,5.23562426 10.9503746,5.64727906 10.9503746,6.18006376 L10.9503746,17.0547672 Z" transform="translate(0 11.267)"/><path d="M12.7226639,6.18005338 C12.7226639,5.67145314 13.135359,5.23561388 13.6452445,5.23561388 C14.1793757,5.23561388 14.5923829,5.64726868 14.5923829,6.18005338 L14.5923829,7.53645907 C15.4178772,6.18005338 16.7290114,5.09029953 18.8899896,5.09029953 C21.9249532,5.09029953 23.6975858,7.12480427 23.6975858,10.1037485 L23.6975858,17.0547568 C23.6975858,17.5875415 23.2847867,17.9991963 22.7749011,17.9991963 C22.24077,17.9991963 21.8277627,17.5875415 21.8277627,17.0547568 L21.8277627,10.5637722 C21.8277627,8.23874259 20.5654318,6.78559905 18.3558585,6.78559905 C16.1948803,6.78559905 14.5923829,8.35987248 14.5923829,10.7092942 L14.5923829,17.0547568 C14.5923829,17.5875415 14.2039334,17.9991963 13.6694901,17.9991963 C13.135359,17.9991963 12.7226639,17.5875415 12.7226639,17.0547568 L12.7226639,6.18005338 Z" transform="translate(0 11.267)"/><path d="M25.421384,6.18005338 C25.421384,5.67145314 25.8343913,5.23561388 26.3442768,5.23561388 C26.8784079,5.23561388 27.291103,5.64726868 27.291103,6.18005338 L27.291103,17.0547568 C27.291103,17.5875415 26.9026535,17.9991963 26.3685224,17.9991963 C25.8343913,17.9991963 25.421384,17.5875415 25.421384,17.0547568 L25.421384,6.18005338 Z M25.2514568,1.43325623 C25.2514568,0.827710558 25.7372008,0.440240214 26.3442768,0.440240214 C26.9753902,0.440240214 27.4610302,0.827710558 27.4610302,1.43325623 L27.4610302,1.7479656 C27.4610302,2.3294306 26.9753902,2.74108541 26.3442768,2.74108541 C25.7372008,2.74108541 25.2514568,2.3294306 25.2514568,1.7479656 L25.2514568,1.43325623 Z" transform="translate(0 11.267)"/><path d="M30.3985016,11.5810142 L30.3985016,11.6295907 C30.3985016,14.5844543 32.4623933,16.4733333 34.8175442,16.4733333 C37.1484495,16.4733333 39.3580229,14.5115896 39.3580229,11.6295907 L39.3580229,11.5810142 C39.3580229,8.69901542 37.1484495,6.76145611 34.8175442,6.76145611 C32.3896566,6.76145611 30.3985016,8.55370107 30.3985016,11.5810142 L30.3985016,11.5810142 Z M41.1547971,17.0547983 C41.1547971,17.587583 40.742102,17.9992378 40.2321124,17.9992378 C39.6979813,17.9992378 39.2852862,17.587583 39.2852862,17.0547983 L39.2852862,15.359395 C38.2655151,16.8609075 36.7844537,18.1445522 34.477794,18.1445522 C31.467076,18.1445522 28.4802914,15.7711536 28.4802914,11.6537752 L28.4802914,11.6051987 C28.4802914,7.51231613 31.467076,5.09034104 34.477794,5.09034104 C36.8086993,5.09034104 38.3139022,6.3498013 39.2852862,7.75457592 L39.2852862,1.02133155 C39.2852862,0.488546856 39.6737357,0.0768920522 40.2078668,0.0768920522 C40.742102,0.0768920522 41.1547971,0.488546856 41.1547971,1.02133155 L41.1547971,17.0547983 Z" transform="translate(0 11.267)"/><path d="M52.1051405,10.92711 C51.9107596,8.65065688 50.5996254,6.66452106 48.0985848,6.66452106 C45.913257,6.66452106 44.2623725,8.48095047 44.0196046,10.92711 L52.1051405,10.92711 Z M48.3898439,18.1686432 C44.9421852,18.1686432 42.1255359,15.5289042 42.1255359,11.6537856 L42.1255359,11.6052091 C42.1255359,7.9965347 44.6751717,5.09024763 48.1472841,5.09024763 C51.8622685,5.09024763 53.9746514,8.11756079 53.9746514,11.4357103 C53.9746514,11.9443105 53.5616441,12.3077002 53.10077,12.3077002 L44.0196046,12.3077002 C44.2866181,15.020304 46.2048283,16.5461047 48.4385432,16.5461047 C49.9925494,16.5461047 51.1337565,15.940559 52.0566493,15.0927536 C52.2020187,14.9716237 52.3722581,14.8749896 52.5907804,14.8749896 C53.0517586,14.8749896 53.4162747,15.2382755 53.4162747,15.6742186 C53.4162747,15.8921901 53.3192924,16.1100578 53.1249116,16.2797642 C51.9350052,17.4177832 50.5266805,18.1686432 48.3898439,18.1686432 L48.3898439,18.1686432 Z" transform="translate(0 11.267)"/><path d="M54.169001,16.5461358 C53.9988658,16.4250059 53.8287305,16.1827461 53.8287305,15.8678292 C53.8287305,15.4319899 54.1932466,15.0686002 54.654641,15.0686002 C54.824256,15.0686002 54.9943913,15.1171767 55.1156191,15.2139146 C56.4025078,16.0858007 57.7377836,16.5461358 59.0979292,16.5461358 C60.6034443,16.5461358 61.6959521,15.7710913 61.6959521,14.56 L61.6959521,14.5116311 C61.6959521,13.2521708 60.2146826,12.767755 58.5637981,12.3077313 C56.5968887,11.7507622 54.411873,11.0723517 54.411873,8.77150652 L54.411873,8.7231376 C54.411873,6.56760676 56.2086472,5.13864769 58.684922,5.13864769 C60.0203018,5.13864769 61.4773257,5.55061388 62.6914776,6.20452847 C62.9343496,6.34973903 63.1524558,6.61618327 63.1524558,6.97946916 C63.1524558,7.41530842 62.7884599,7.7786981 62.3269615,7.7786981 C62.1573465,7.7786981 62.0114568,7.73012159 61.9145786,7.68175267 C60.845692,7.076207 59.7047971,6.71312871 58.6365349,6.71312871 C57.1552653,6.71312871 56.2086472,7.48817319 56.2086472,8.52955813 L56.2086472,8.57792705 C56.2086472,9.76462633 57.7625494,10.2248577 59.4376795,10.7334579 C61.3804475,11.3146115 63.4684807,12.0654715 63.4684807,14.3177402 L63.4684807,14.3663167 C63.4684807,16.7397153 61.5015713,18.1203055 59.0004266,18.1203055 C57.3496462,18.1203055 55.5285224,17.5147598 54.169001,16.5461358" transform="translate(0 11.267)"/><path d="M65.7014256,11.5810142 L65.7014256,11.6295907 C65.7014256,14.5844543 67.7653174,16.4733333 70.1204683,16.4733333 C72.4513736,16.4733333 74.661155,14.5115896 74.661155,11.6295907 L74.661155,11.5810142 C74.661155,8.69901542 72.4513736,6.76145611 70.1204683,6.76145611 C67.6925806,6.76145611 65.7014256,8.55370107 65.7014256,11.5810142 L65.7014256,11.5810142 Z M76.4579292,22.6172242 C76.4579292,23.1500089 76.045026,23.5616637 75.5350364,23.5616637 C75.0009053,23.5616637 74.587898,23.1500089 74.587898,22.6172242 L74.587898,15.359395 C73.5686472,16.8609075 72.0873777,18.1445522 69.780718,18.1445522 C66.7696878,18.1445522 63.7835276,15.7711536 63.7835276,11.6537752 L63.7835276,11.6051987 C63.7835276,7.51231613 66.7696878,5.09034104 69.780718,5.09034104 C72.1116233,5.09034104 73.6171384,6.3498013 74.587898,7.75457592 L74.587898,6.1800949 C74.587898,5.67139087 74.9766597,5.2355516 75.5107908,5.2355516 C76.045026,5.2355516 76.4579292,5.67139087 76.4579292,6.1800949 L76.4579292,22.6172242 Z" transform="translate(0 11.267)"/></g></svg>