<?xml version="1.0" encoding="UTF-8" standalone="no"?>
<svg width="11px" height="11px" viewBox="0 0 11 11" version="1.1" xmlns="http://www.w3.org/2000/svg" xmlns:xlink="http://www.w3.org/1999/xlink">
    <!-- Generator: Sketch 3.8.3 (29802) - http://www.bohemiancoding.com/sketch -->
    <title></title>
    <desc>Created with Sketch.</desc>
    <defs></defs>
    <g id="Page-1" stroke="none" stroke-width="1" fill="none" fill-rule="evenodd">
        <g id="*-Styleguide" transform="translate(-5136.000000, -1320.000000)" fill="#000000">
            <g id="Alert---success-Copy-2" transform="translate(4756.000000, 1301.000000)">
                <path d="M390.226562,28.3320312 C390.408855,28.5325531 390.5,28.7695299 390.5,29.0429688 C390.5,29.3164076 390.408855,29.5442699 390.226562,29.7265625 C390.04427,29.9088551 389.816408,30 389.542969,30 C389.26953,30 389.032553,29.9088551 388.832031,29.7265625 L385.25,26.1445312 L381.667969,29.7265625 C381.467447,29.9088551 381.239585,30 380.984375,30 C380.729165,30 380.501303,29.9088551 380.300781,29.7265625 C380.100259,29.5442699 380,29.3164076 380,29.0429688 C380,28.7695299 380.100259,28.5325531 380.300781,28.3320312 L383.855469,24.75 L380.300781,21.1679688 C380.100259,20.9674469 380,20.7304701 380,20.4570312 C380,20.1835924 380.100259,19.9557301 380.300781,19.7734375 C380.501303,19.5911449 380.729165,19.5 380.984375,19.5 C381.239585,19.5 381.467447,19.5911449 381.667969,19.7734375 L385.25,23.3554688 L388.832031,19.7734375 C389.032553,19.5911449 389.26953,19.5 389.542969,19.5 C389.816408,19.5 390.04427,19.5911449 390.226562,19.7734375 C390.408855,19.9557301 390.5,20.1835924 390.5,20.4570312 C390.5,20.7304701 390.408855,20.9674469 390.226562,21.1679688 L386.644531,24.75 L390.226562,28.3320312 Z" id=""></path>
            </g>
        </g>
    </g>
</svg>