<?xml version="1.0" encoding="UTF-8" standalone="no"?>
<svg width="17px" height="17px" viewBox="0 0 17 17" version="1.1" xmlns="http://www.w3.org/2000/svg" xmlns:xlink="http://www.w3.org/1999/xlink">
    <!-- Generator: Sketch 3.8.3 (29802) - http://www.bohemiancoding.com/sketch -->
    <title>Type something</title>
    <desc>Created with Sketch.</desc>
    <defs></defs>
    <g id="Page-1" stroke="none" stroke-width="1" fill="none" fill-rule="evenodd">
        <g id="*-Styleguide" transform="translate(-4771.000000, -1319.000000)" fill="#000000">
            <g id="Alert---success-Copy-2" transform="translate(4756.000000, 1301.000000)">
                <g id="Group-15" transform="translate(15.000000, 17.000000)">
                    <path d="M11.40625,6.4140625 L12.109375,7.1171875 L6.875,12.390625 C6.77083281,12.4947922 6.65364648,12.546875 6.5234375,12.546875 C6.39322852,12.546875 6.27604219,12.4947922 6.171875,12.390625 L3.984375,10.203125 L4.6875,9.5 L6.5234375,11.3359375 L11.40625,6.4140625 Z M8.125,1.375 C10.3645945,1.375 12.2786379,2.16926289 13.8671875,3.7578125 C15.4557371,5.34636211 16.25,7.26040547 16.25,9.5 C16.25,11.7395945 15.4557371,13.6536379 13.8671875,15.2421875 C12.2786379,16.8307371 10.3645945,17.625 8.125,17.625 C5.88540547,17.625 3.97136211,16.8307371 2.3828125,15.2421875 C0.794262891,13.6536379 0,11.7395945 0,9.5 C0,7.26040547 0.794262891,5.34636211 2.3828125,3.7578125 C3.97136211,2.16926289 5.88540547,1.375 8.125,1.375 L8.125,1.375 Z M8.125,16.9609375 C10.182302,16.9609375 11.9400969,16.2317781 13.3984375,14.7734375 C14.8567781,13.3150969 15.5859375,11.557302 15.5859375,9.5 C15.5859375,7.44269805 14.8567781,5.68490312 13.3984375,4.2265625 C11.9400969,2.76822188 10.182302,2.0390625 8.125,2.0390625 C6.06769805,2.0390625 4.30990312,2.76822188 2.8515625,4.2265625 C1.39322188,5.68490312 0.6640625,7.44269805 0.6640625,9.5 C0.6640625,11.557302 1.39322188,13.3150969 2.8515625,14.7734375 C4.30990312,16.2317781 6.06769805,16.9609375 8.125,16.9609375 L8.125,16.9609375 Z" id="Type-something"></path>
                </g>
            </g>
        </g>
    </g>
</svg>