<?xml version="1.0" encoding="utf-8"?>
<!-- Generator: Adobe Illustrator 16.0.0, SVG Export Plug-In . SVG Version: 6.00 Build 0)  -->
<!DOCTYPE svg PUBLIC "-//W3C//DTD SVG 1.1//EN" "http://www.w3.org/Graphics/SVG/1.1/DTD/svg11.dtd">
<svg version="1.1" id="Layer_1" xmlns="http://www.w3.org/2000/svg" xmlns:xlink="http://www.w3.org/1999/xlink" x="0px" y="0px"
	 width="20px" height="20px" viewBox="0 0 20 20" enable-background="new 0 0 20 20" xml:space="preserve">
<path id="_xF29D_" fill="#78E7FF" d="M18.938,9.188c0.236,0,0.432,0.076,0.584,0.229S19.75,9.763,19.75,10s-0.076,0.432-0.229,0.584
	s-0.348,0.229-0.584,0.229h-4.062c-0.236,0-0.432-0.076-0.584-0.229S14.062,10.237,14.062,10s0.076-0.432,0.229-0.584
	s0.348-0.229,0.584-0.229H18.938z M5.938,10c0,0.237-0.076,0.432-0.229,0.584s-0.347,0.229-0.584,0.229H1.062
	c-0.237,0-0.432-0.076-0.584-0.229S0.25,10.237,0.25,10s0.076-0.432,0.229-0.584s0.347-0.229,0.584-0.229h4.062
	c0.237,0,0.432,0.076,0.584,0.229S5.938,9.763,5.938,10L5.938,10z M10,14.062c0.237,0,0.432,0.076,0.584,0.229
	s0.229,0.348,0.229,0.584v4.062c0,0.236-0.076,0.432-0.229,0.584S10.237,19.75,10,19.75s-0.432-0.076-0.584-0.229
	s-0.229-0.348-0.229-0.584v-4.062c0-0.236,0.076-0.432,0.229-0.584S9.763,14.062,10,14.062L10,14.062z M10,0.25
	c0.237,0,0.432,0.076,0.584,0.229s0.229,0.347,0.229,0.584v4.062c0,0.237-0.076,0.432-0.229,0.584S10.237,5.938,10,5.938
	S9.568,5.861,9.416,5.709S9.188,5.362,9.188,5.125V1.062c0-0.237,0.076-0.432,0.229-0.584S9.763,0.25,10,0.25L10,0.25z
	 M13.504,7.969c-0.271-0.474-0.17-0.846,0.305-1.117l3.504-2.031c0.203-0.102,0.414-0.127,0.635-0.076s0.389,0.178,0.508,0.381
	S18.6,5.54,18.531,5.76s-0.203,0.381-0.406,0.482l-3.504,2.031C14.418,8.375,14.215,8.4,14.012,8.35S13.639,8.172,13.504,7.969
	L13.504,7.969z M6.496,12.031c0.271,0.475,0.169,0.846-0.305,1.117L2.688,15.18c-0.203,0.102-0.415,0.127-0.635,0.076
	s-0.389-0.178-0.508-0.381s-0.144-0.414-0.076-0.635s0.203-0.381,0.406-0.482l3.504-2.031c0.203-0.102,0.406-0.127,0.609-0.076
	S6.361,11.828,6.496,12.031L6.496,12.031z M13.148,13.809l2.031,3.504c0.102,0.203,0.127,0.414,0.076,0.635
	s-0.178,0.389-0.381,0.508s-0.414,0.145-0.635,0.076s-0.381-0.203-0.482-0.406l-2.031-3.504c-0.102-0.203-0.127-0.414-0.076-0.635
	s0.178-0.381,0.381-0.482s0.414-0.127,0.635-0.076S13.047,13.605,13.148,13.809L13.148,13.809z M6.242,1.875l2.031,3.504
	C8.375,5.582,8.4,5.793,8.35,6.014S8.172,6.395,7.969,6.496S7.554,6.623,7.334,6.572S6.953,6.395,6.852,6.191L4.82,2.688
	C4.719,2.484,4.693,2.273,4.744,2.053s0.178-0.389,0.381-0.508S5.54,1.401,5.76,1.469S6.141,1.672,6.242,1.875L6.242,1.875z
	 M12.031,6.496c-0.203-0.135-0.33-0.305-0.381-0.508s-0.025-0.406,0.076-0.609l2.031-3.504c0.271-0.474,0.643-0.576,1.117-0.305
	s0.576,0.643,0.305,1.117l-2.031,3.504C12.877,6.666,12.506,6.767,12.031,6.496L12.031,6.496z M7.969,13.504
	c0.203,0.135,0.33,0.305,0.381,0.508s0.025,0.406-0.076,0.609l-2.031,3.504C5.971,18.6,5.599,18.701,5.125,18.43
	s-0.576-0.643-0.305-1.117l2.031-3.504C7.123,13.334,7.495,13.232,7.969,13.504L7.969,13.504z M18.125,13.758
	c0.475,0.271,0.576,0.643,0.305,1.117s-0.643,0.576-1.117,0.305l-3.504-2.031c-0.475-0.271-0.576-0.643-0.305-1.117
	s0.643-0.576,1.117-0.305L18.125,13.758z M1.875,6.242C1.401,5.971,1.299,5.599,1.57,5.125S2.213,4.549,2.688,4.82l3.504,2.031
	c0.474,0.271,0.576,0.643,0.305,1.117S5.853,8.544,5.379,8.273L1.875,6.242z"/>
</svg>
